<svg width="48" height="48" viewBox="0 0 48 48" fill="none" xmlns="http://www.w3.org/2000/svg">
<mask id="mask0_10_166" style="mask-type:alpha" maskUnits="userSpaceOnUse" x="0" y="0" width="48" height="48">
<rect width="48" height="48" fill="#D9D9D9"/>
</mask>
<g mask="url(#mask0_10_166)">
<path d="M26.6 44.9L23.6 44.3L25.15 35.9L17.85 30.4L15.1 18.4L9.85 22.9L11.4 30.3L8.4 30.9L6.55 21.9L15.25 14.15C15.95 13.5167 16.7667 13.2667 17.7 13.4C18.6333 13.5333 19.55 13.7833 20.45 14.15C21.5833 14.6167 22.75 14.9583 23.95 15.175C25.15 15.3917 26.35 15.4167 27.55 15.25C28.65 15.0833 29.675 14.7083 30.625 14.125C31.575 13.5417 32.4833 12.9 33.35 12.2L35.25 14.55C34.35 15.25 33.4167 15.9167 32.45 16.55C31.4833 17.1833 30.45 17.65 29.35 17.95C28.1833 18.2833 26.9833 18.4167 25.75 18.35C24.5167 18.2833 23.3167 18.1 22.15 17.8L23.8 25.3L31.5 23.85L41.3 30.8L39.5 33.2L31.1 27.35L22.6 29.05L28.65 33.5L26.6 44.9ZM16 10C15.0333 10 14.2083 9.65833 13.525 8.975C12.8417 8.29167 12.5 7.46667 12.5 6.5C12.5 5.53333 12.8417 4.70833 13.525 4.025C14.2083 3.34167 15.0333 3 16 3C16.9667 3 17.7917 3.34167 18.475 4.025C19.1583 4.70833 19.5 5.53333 19.5 6.5C19.5 7.46667 19.1583 8.29167 18.475 8.975C17.7917 9.65833 16.9667 10 16 10Z" fill="#1C1B1F"/>
</g>
</svg>
